<?xml version="1.0" encoding="utf-8"?>
<!-- Generator: Adobe Illustrator 23.1.1, SVG Export Plug-In . SVG Version: 6.00 Build 0)  -->
<svg version="1.1" id="Layer_1" xmlns="http://www.w3.org/2000/svg" xmlns:xlink="http://www.w3.org/1999/xlink" x="0px" y="0px"
	 viewBox="0 0 50 50" style="enable-background:new 0 0 50 50;" xml:space="preserve">
<style type="text/css">
	.st0{fill:#FCEE21;stroke:#000000;stroke-miterlimit:10;}
	.st1{fill:#F15A24;stroke:#000000;stroke-miterlimit:10;}
	.st2{fill:#F7931E;stroke:#000000;stroke-miterlimit:10;}
</style>
<path class="st0" d="M26.9,42.9C37.7,40.2,40,39.8,40,32.2c0-6.7-9.9-21.5-12.6-25.1c-0.1-0.3-0.7-0.1-0.7,0.1
	c-0.1,2.7-0.7,9.6-3.7,9.6c-3.7,0-0.1-7.7-1.9-6.1C10,21.1,0.7,49.3,26.9,42.9z"/>
<path class="st1" d="M20.6,41.4c-7.1-1.9,4.7-13.6,5.9-17.4c0.1-0.4,0.7-0.7,1.1-0.4c2.5,1.2,8,4.5,8,10.4
	C35.7,35.8,33.8,44.9,20.6,41.4z"/>
<path class="st2" d="M22.6,23c0.1-0.7-0.4-0.8-0.5-0.9c-2.1-0.9-13.5,12-9.7,18.2c2.4,3.9,9.9,3.3,13.4,2.7c1.6-0.4,3.2-0.7,4.3-2
	c3.1-3.5,0-9.5-1.2-11.4c-0.4-0.7-1.3-0.4-1.3,0.3c-0.3,2.1-1.1,4.9-3.5,3.2C20.9,30.7,22.1,25,22.6,23z"/>
</svg>
