<?xml version="1.0" encoding="utf-8"?>
<!-- Generator: Adobe Illustrator 23.1.1, SVG Export Plug-In . SVG Version: 6.00 Build 0)  -->
<svg version="1.1" id="Layer_1" xmlns="http://www.w3.org/2000/svg" xmlns:xlink="http://www.w3.org/1999/xlink" x="0px" y="0px"
	 viewBox="0 0 50 50" style="enable-background:new 0 0 50 50;" xml:space="preserve">
<style type="text/css">
	.st0{fill:none;stroke:#006837;stroke-miterlimit:10;}
	.st1{fill:#FBB03B;}
	.st2{fill:#39B54A;stroke:#006837;stroke-miterlimit:10;}
	.st3{fill:#FFBA00;stroke:#000000;stroke-miterlimit:10;}
</style>
<path class="st0" d="M21.5,45.9c-5.8-11.5,10-13,6-25"/>
<g>
	<circle class="st1" cx="26.3" cy="13.4" r="4.9"/>
</g>
<g>
	<circle class="st1" cx="26.3" cy="13.4" r="4.9"/>
</g>
<path class="st2" d="M20.7,34.8C18.6,40.4,10.3,31,10.3,31S22.7,29.1,20.7,34.8z"/>
<g>
	<path class="st3" d="M25,18.9c1.6,4.1,4,3.6,4.1-0.7c3.9,1.9,5.4-0.1,2.4-3.4c4.1-1.6,3.6-4-0.7-4.1c1.9-3.9-0.1-5.4-3.4-2.4
		c-1.6-4.1-4-3.6-4.1,0.7c-3.9-1.9-5.4,0.1-2.4,3.4c-4.1,1.6-3.6,4,0.7,4.1C19.8,20.3,21.8,21.8,25,18.9z"/>
</g>
<path class="st2" d="M29.5,27.5c1,5,10-2,10-2S28.5,22.5,29.5,27.5z"/>
<circle cx="26.3" cy="13.6" r="3.8"/>
<path class="st0" d="M11.5,31.4c0-0.1-0.1-0.2-0.2-0.2"/>
</svg>
