<?xml version="1.0" encoding="utf-8"?>
<!-- Generator: Adobe Illustrator 23.1.1, SVG Export Plug-In . SVG Version: 6.00 Build 0)  -->
<svg version="1.1" id="Layer_1" xmlns="http://www.w3.org/2000/svg" xmlns:xlink="http://www.w3.org/1999/xlink" x="0px" y="0px"
	 viewBox="0 0 197.4 149" style="enable-background:new 0 0 197.4 149;" xml:space="preserve">
<style type="text/css">
	.st0{fill:#65BB78;}
	.st1{fill:none;stroke:#000000;stroke-width:7;stroke-miterlimit:10;}
</style>
<polygon class="st0" points="153.4,32.4 42.9,115.5 153.4,115.5 "/>
<path d="M91.8,64.9c0,11.9-9.1,19.4-24,19.4h-8.5v21h-8.4V46h16.9C82.8,46,91.8,53.3,91.8,64.9z M83,64.9c0-7.9-5.6-12.3-15.6-12.3
	h-8.1v24.9h8.1C77.5,77.6,83,73,83,64.9z"/>
<path d="M143.7,46v59.4h-8.2v-26H113v26h-8.3V46h8.3v26.7h22.5V46H143.7z"/>
<rect x="83" y="98.5" width="9.2" height="7.3"/>
<rect x="43.2" y="32" class="st1" width="110.5" height="83.4"/>
</svg>
