<?xml version="1.0" encoding="utf-8"?>
<!-- Generator: Adobe Illustrator 23.1.1, SVG Export Plug-In . SVG Version: 6.00 Build 0)  -->
<svg version="1.1" id="Layer_1" xmlns="http://www.w3.org/2000/svg" xmlns:xlink="http://www.w3.org/1999/xlink" x="0px" y="0px"
	 viewBox="0 0 50 50" style="enable-background:new 0 0 50 50;" xml:space="preserve">
<style type="text/css">
	.st0{fill:#0071BC;}
	.st1{fill:none;stroke:#FFFFFF;stroke-linecap:round;stroke-miterlimit:10;}
	.st2{fill:none;stroke:#009245;stroke-linecap:round;stroke-miterlimit:10;}
</style>
<path class="st0" d="M20.9,7h4.8c2.1,1.1,7.5,4.3,10.2,10.8c3.3,8.1,1,18-6,25.2H4.7C4.7,43,32.3,17.8,20.9,7z"/>
<path class="st1" d="M13,38c1.6,2,2.2-1.2,3.4-1.2c0.2,0,0.6,0.1,0.7,0.2c1.2,2,2,2.8,3.6,2.7"/>
<path class="st1" d="M23.8,32c1.6,2,2.2-1.2,3.4-1.2c0.2,0,0.6,0.1,0.7,0.2c1.2,2,2,2.8,3.6,2.7"/>
<path class="st1" d="M22.6,23.6c1.6,2,2.2-1.2,3.4-1.2c0.2,0,0.6,0.1,0.7,0.2c1.2,2,2,2.8,3.6,2.7"/>
<path class="st1" d="M24.5,10.6c0.7,1,1.1-0.6,1.6-0.6c0.1,0,0.3,0,0.3,0.1c0.6,0.9,1,1.3,1.7,1.3"/>
<path class="st1" d="M27,16.8c1.5,1.4,1.8-0.6,2.8-0.5c0.2,0,0.5,0.1,0.6,0.2c1.2,1.4,1.9,2,3.3,2.1"/>
<line class="st2" x1="7.7" y1="27.4" x2="7.7" y2="35.2"/>
<line class="st2" x1="5.5" y1="29.6" x2="7.7" y2="27.4"/>
<line class="st2" x1="7.7" y1="27.4" x2="9.9" y2="29.6"/>
<line class="st2" x1="4.9" y1="32.1" x2="7.7" y2="29.4"/>
<line class="st2" x1="7.7" y1="29.3" x2="10.5" y2="32.1"/>
<line class="st2" x1="4.9" y1="34.4" x2="7.7" y2="31.6"/>
<line class="st2" x1="7.7" y1="31.6" x2="10.5" y2="34.4"/>
<line class="st2" x1="12.9" y1="20.2" x2="12.9" y2="26.8"/>
<line class="st2" x1="11.1" y1="22.1" x2="12.9" y2="20.2"/>
<line class="st2" x1="13" y1="20.2" x2="14.8" y2="22.1"/>
<line class="st2" x1="10.6" y1="24.2" x2="12.9" y2="21.9"/>
<line class="st2" x1="13" y1="21.8" x2="15.3" y2="24.2"/>
<line class="st2" x1="10.6" y1="26.1" x2="12.9" y2="23.7"/>
<line class="st2" x1="13" y1="23.7" x2="15.3" y2="26.1"/>
<line class="st2" x1="41.3" y1="25" x2="41.3" y2="32.8"/>
<line class="st2" x1="39.1" y1="27.2" x2="41.3" y2="25"/>
<line class="st2" x1="41.3" y1="25" x2="43.5" y2="27.2"/>
<line class="st2" x1="38.5" y1="29.7" x2="41.3" y2="27"/>
<line class="st2" x1="41.3" y1="26.9" x2="44.1" y2="29.7"/>
<line class="st2" x1="38.5" y1="32" x2="41.3" y2="29.2"/>
<line class="st2" x1="41.3" y1="29.2" x2="44.1" y2="32"/>
<line class="st2" x1="38.9" y1="9.4" x2="38.9" y2="15.4"/>
<line class="st2" x1="37.5" y1="11.1" x2="38.9" y2="9.4"/>
<line class="st2" x1="38.9" y1="9.4" x2="40.4" y2="11.1"/>
<line class="st2" x1="37.1" y1="13" x2="38.9" y2="10.9"/>
<line class="st2" x1="38.9" y1="10.9" x2="40.7" y2="13"/>
<line class="st2" x1="37.1" y1="14.8" x2="38.9" y2="12.6"/>
<line class="st2" x1="38.9" y1="12.6" x2="40.7" y2="14.8"/>
<line class="st2" x1="18.4" y1="11.8" x2="18.4" y2="18.4"/>
<line class="st2" x1="17.1" y1="13.7" x2="18.4" y2="11.8"/>
<line class="st2" x1="18.4" y1="11.8" x2="19.8" y2="13.7"/>
<line class="st2" x1="16.7" y1="15.8" x2="18.4" y2="13.5"/>
<line class="st2" x1="18.4" y1="13.4" x2="20.1" y2="15.8"/>
<line class="st2" x1="16.7" y1="17.7" x2="18.4" y2="15.3"/>
<line class="st2" x1="18.4" y1="15.3" x2="20.1" y2="17.7"/>
</svg>
