<?xml version="1.0" encoding="utf-8"?>
<!-- Generator: Adobe Illustrator 23.1.1, SVG Export Plug-In . SVG Version: 6.00 Build 0)  -->
<svg version="1.1" id="Layer_1" xmlns="http://www.w3.org/2000/svg" xmlns:xlink="http://www.w3.org/1999/xlink" x="0px" y="0px"
	 viewBox="0 0 50 50" style="enable-background:new 0 0 50 50;" xml:space="preserve">
<style type="text/css">
	.st0{fill:none;stroke:#29ABE2;stroke-width:2;stroke-linecap:round;stroke-miterlimit:10;}
	.st1{fill:none;stroke:#29ABE2;stroke-linecap:round;stroke-miterlimit:10;}
</style>
<g id="_x31_">
	<line class="st0" x1="25" y1="8.4" x2="25" y2="41.6"/>
	<polyline class="st1" points="28,8.9 25,11.4 22,8.9 	"/>
	<polyline class="st1" points="28,40.7 25,38.7 22,40.7 	"/>
	<line class="st0" x1="42.5" y1="24.9" x2="7.5" y2="24.9"/>
	<polyline class="st1" points="41,27.9 38.5,24.9 41,21.7 	"/>
	<polyline class="st1" points="7.9,27.9 10,24.9 7.9,21.7 	"/>
</g>
<g id="_x32_">
	<polygon class="st0" points="35.2,24.8 32.3,17.6 25,14.6 17.9,17.5 14.8,24.6 17.7,31.8 25,34.8 32.1,31.9 	"/>
	<line class="st1" x1="37.4" y1="12.3" x2="12.6" y2="37.2"/>
	<polyline class="st1" points="38.5,15.6 34.5,15.2 34.1,11.2 	"/>
	<polyline class="st1" points="15.2,38.9 14.5,35.3 10.7,34.6 	"/>
	<line class="st1" x1="37.4" y1="37.2" x2="12.6" y2="12.3"/>
	<polyline class="st1" points="34.1,38.2 34.5,34.2 38.5,33.8 	"/>
	<polyline class="st1" points="10.7,14.8 14.5,14.1 15.2,10.5 	"/>
	<circle class="st1" cx="25" cy="24.8" r="4.7"/>
</g>
</svg>
