<?xml version="1.0" encoding="utf-8"?>
<!-- Generator: Adobe Illustrator 23.1.1, SVG Export Plug-In . SVG Version: 6.00 Build 0)  -->
<svg version="1.1" id="Layer_1" xmlns="http://www.w3.org/2000/svg" xmlns:xlink="http://www.w3.org/1999/xlink" x="0px" y="0px"
	 viewBox="0 0 50 50" style="enable-background:new 0 0 50 50;" xml:space="preserve">
<style type="text/css">
	.st0{fill:#603813;}
	.st1{fill:#006837;stroke:#000000;stroke-miterlimit:10;}
</style>
<g id="Trunk">
	<g>
		<path class="st0" d="M21.8,33.5h5.6c0.8,0,1.4,0.8,1.4,1.6v7.4c0,0.9-0.7,1.6-1.4,1.6h-5.6c-0.8,0-1.4-0.8-1.4-1.6v-7.4
			C20.3,34.2,21,33.5,21.8,33.5z"/>
		<path d="M28.5,34v8c0,0.9-0.7,1.6-1.4,1.6h-4.5c-0.8,0-1.4-0.8-1.4-1.6v-6.2c0-0.9,0.7-1.6,1.4-1.6h5.9 M29.6,32.8h-8.3
			c-0.8,0-1.4,0.8-1.4,1.6V43c0,0.9,0.7,1.6,1.4,1.6H28c0.8,0,1.4-0.8,1.4-1.6L29.6,32.8L29.6,32.8z"/>
	</g>
</g>
<g id="Bottom_Branch">
	<path class="st1" d="M10.9,37.3l2.3,1.4c0.5,0.4,1.3,0.4,2.1,0.1l3.2-1.4c0.5-0.3,1.3-0.3,1.8,0l4.3,2.1c0.8,0.4,1.7,0.3,2.3-0.4
		l2.3-2.1c0.7-0.7,1.7-0.7,2.5-0.3l3,1.8c0.7,0.4,1.4,0.4,2.1,0l2.2-1.3c1.2-0.7,1.3-2.1,0.5-3.1L26.6,18.6c-0.9-1-2.3-1-3.2,0
		L10.3,34.2C9.5,35.2,9.8,36.6,10.9,37.3z"/>
</g>
<g id="Middle_Branch">
	<path class="st1" d="M13.1,28l2.8,1.3c0.4,0.3,0.9,0.3,1.3-0.1l2.5-1.6c0.4-0.4,1.2-0.4,1.6,0.1l2.3,2.1c0.5,0.4,1.3,0.4,1.8,0
		l2.1-1.9c0.4-0.4,1.2-0.4,1.7-0.1l2.6,1.7c0.4,0.3,0.8,0.3,1.3,0.1l3.6-1.4c0.9-0.4,1.2-1.4,0.4-2.1L25.5,12.8
		c-0.5-0.7-1.6-0.5-2.1,0L12.7,25.8C12.1,26.6,12.4,27.5,13.1,28z"/>
</g>
<g id="Tob_Branch">
	<path class="st1" d="M16.4,19l0.8,0.4c0.5,0.4,1.3,0.4,1.8,0l1.3-0.8c0.8-0.4,1.7-0.4,2.2,0.4l0.7,0.7c0.5,0.7,1.6,0.8,2.3,0.3
		l2.1-1.3c0.5-0.4,1.3-0.4,1.9-0.1l1.6,0.9c0.5,0.4,1.3,0.4,1.8,0l0.8-0.4c1-0.5,1.3-1.8,0.4-2.7l-7.9-9.5c-0.7-0.9-2.1-0.9-2.8,0
		l-7.8,9.3C15.2,17,15.5,18.3,16.4,19z"/>
</g>
</svg>
