<?xml version="1.0" encoding="utf-8"?>
<!-- Generator: Adobe Illustrator 23.1.1, SVG Export Plug-In . SVG Version: 6.00 Build 0)  -->
<svg version="1.1" id="Layer_1" xmlns="http://www.w3.org/2000/svg" xmlns:xlink="http://www.w3.org/1999/xlink" x="0px" y="0px"
	 viewBox="0 0 50 50" style="enable-background:new 0 0 50 50;" xml:space="preserve">
<style type="text/css">
	.st0{fill:#333333;}
	.st1{fill:#ED1C24;}
	.st2{fill:#C7B299;stroke:#736357;stroke-miterlimit:10;}
</style>
<path class="st0" d="M41.2,47.3H8.7c-0.9,0-1.4-0.9-1.1-1.6l12.2-19.3c-0.2,0.7-0.4,1.8,0.6,1.6c0.1-0.1,1.4-0.8,2.3-1.4
	c1.1,0.7,0,2.5,2.1,2.5c1.6,0,1.8-1.1,2.3-2.1c0.1,1.1,2.3,2,2.3,1.1c0-0.9,0.8-0.8,0.6-1.3l12,18.9C42.7,46.4,42.1,47.3,41.2,47.3z
	"/>
<path class="st1" d="M29.7,28.1c0,1.1-2.2,0-2.3-1.1c-0.6,0.9-0.7,2.1-2.3,2.1c-2.1,0-1.1-1.8-2.1-2.5c-0.9,0.6-2.2,1.3-2.3,1.4
	c-0.9,0.1-0.8-0.9-0.6-1.6c0.1-0.5,0.2-0.7,0.2-0.7l0.5-0.7l0,0c0.1-0.1,0.2-0.2,0.4-0.4c1.5-1.1,6.2-1.1,7.9,0c0,0,0,0,0.1,0.1
	l0.1,0.1c0,0,0.1,0.1,0.1,0.2c0.1,0.1,0.1,0.2,0.1,0.2c0.1,0.2,0.2,0.5,0.5,0.8c0.1,0.1,0.2,0.4,0.4,0.6c0,0.1,0.1,0.1,0.1,0.2
	C30.5,27.2,29.7,27.1,29.7,28.1z"/>
<path class="st2" d="M32.4,10.8c0.6,0.7,0.8,1.5,0.8,2.5c0,2.2-1.8,4-4,4.3v1.3c0,2.1-1.8,3.8-4,3.8l0,0c-2.2,0-4-1.6-4-3.8v-3.3
	C19.4,15,18,13.4,18,11.4c0-1.1,0.4-2,1.1-2.7c-0.2-0.5-0.4-1.1-0.4-1.6c0-2.5,2.1-4.3,4.7-4.3c1.4,0,2.7,0.6,3.5,1.5
	c0.6-0.2,1.2-0.4,1.8-0.4c2.6,0,4.7,2,4.7,4.3C33.2,9.3,32.9,10.1,32.4,10.8z"/>
</svg>
