<?xml version="1.0" encoding="utf-8"?>
<!-- Generator: Adobe Illustrator 23.1.1, SVG Export Plug-In . SVG Version: 6.00 Build 0)  -->
<svg version="1.1" id="Layer_1" xmlns="http://www.w3.org/2000/svg" xmlns:xlink="http://www.w3.org/1999/xlink" x="0px" y="0px"
	 viewBox="0 0 50 50" style="enable-background:new 0 0 50 50;" xml:space="preserve">
<style type="text/css">
	.st0{fill:#29ABE2;stroke:#FFFFFF;stroke-miterlimit:10;}
</style>
<path class="st0" d="M3.5,33.8c2-13.8,11.3-20.8,21.2-20.3c6.6,0.3,9.4,3.1,10.5,5.5c1.2,2.7-0.1,3.3-1.7,1.7
	c-1.7-1.9-5.9-1.4-7.4,2.4c-2.4,5.9,7.4,10.8,11.2,8.4s11.2,2.4,11.2,2.4"/>
<path class="st0" d="M13.7,33.2c-2-2.9-1.4-7.4,0-10.5c0.2-0.5,2.7-5.6,8.1-7c6.3-1.5,12,4,11.6,4.7c-0.3,0.8-7.6-3.3-11.6,0
	c-0.1,0.1-1.7,1.4-2,3.5c-0.5,3.7,0.5,6.2,6.4,8.7c0.8,0.3,1.7,0.7,2.7,0.8c11.4,1.5,19.8,0.8,19.6,0.5
	C48.5,33.4,19.7,41.6,13.7,33.2z"/>
<polyline class="st0" points="1.4,35.5 11.6,35.5 21.9,39.6 "/>
<polyline class="st0" points="34.2,38.2 42.1,38.1 44.5,36.2 "/>
</svg>
